<mxfile host="app.diagrams.net" modified="2021-03-24T05:58:07.085Z" agent="5.0 (Macintosh; Intel Mac OS X 10_15_6) AppleWebKit/605.1.15 (KHTML, like Gecko) Version/14.0.3 Safari/605.1.15" etag="1Ils3pQzHVhrNBRMvQFe" version="14.5.1" type="github">
  <diagram id="MJR66UyUv7xJhzFpMSsS" name="Page-1">
    <mxGraphModel dx="2066" dy="1185" grid="1" gridSize="10" guides="1" tooltips="1" connect="1" arrows="1" fold="1" page="1" pageScale="1" pageWidth="827" pageHeight="1169" math="0" shadow="0">
      <root>
        <mxCell id="0" />
        <mxCell id="1" parent="0" />
        <mxCell id="NAq1_VTEs5BF6OpYtz93-5" value="" style="verticalLabelPosition=bottom;verticalAlign=top;html=1;shape=mxgraph.basic.rect;fillColor2=none;strokeWidth=1;size=20;indent=5;fillColor=#f5f5f5;fontColor=#333333;strokeColor=none;" parent="1" vertex="1">
          <mxGeometry x="90" y="330" width="500" height="170" as="geometry" />
        </mxCell>
        <mxCell id="ToquvjTJj3iG_XZzc7ye-24" value="网关" style="shape=cylinder;whiteSpace=wrap;html=1;boundedLbl=1;backgroundOutline=1;verticalAlign=top;fillColor=#d5e8d4;fillStyle=diag;strokeColor=#82b366;" parent="1" vertex="1">
          <mxGeometry x="414" y="210" width="60" height="80" as="geometry" />
        </mxCell>
        <mxCell id="NAq1_VTEs5BF6OpYtz93-10" value="SaaS" style="rounded=1;whiteSpace=wrap;html=1;strokeWidth=1;fillColor=#ffffff;flipH=1;" parent="1" vertex="1">
          <mxGeometry x="120" y="407.5" width="70" height="35" as="geometry" />
        </mxCell>
        <mxCell id="NAq1_VTEs5BF6OpYtz93-11" value="平台" style="text;html=1;strokeColor=none;fillColor=none;align=center;verticalAlign=middle;whiteSpace=wrap;rounded=0;fontStyle=0;fontSize=14;" parent="1" vertex="1">
          <mxGeometry x="340" y="340" width="40" height="20" as="geometry" />
        </mxCell>
        <mxCell id="NAq1_VTEs5BF6OpYtz93-12" value="OP" style="rounded=1;whiteSpace=wrap;html=1;strokeWidth=1;fillColor=#ffffff;flipH=1;" parent="1" vertex="1">
          <mxGeometry x="243" y="407.5" width="70" height="35" as="geometry" />
        </mxCell>
        <mxCell id="NAq1_VTEs5BF6OpYtz93-13" value="CDP" style="rounded=1;whiteSpace=wrap;html=1;strokeWidth=1;fillColor=#ffffff;flipH=1;" parent="1" vertex="1">
          <mxGeometry x="377" y="407.5" width="50" height="35" as="geometry" />
        </mxCell>
        <mxCell id="NAq1_VTEs5BF6OpYtz93-14" value="MA" style="rounded=1;whiteSpace=wrap;html=1;strokeWidth=1;fillColor=#ffffff;flipH=1;" parent="1" vertex="1">
          <mxGeometry x="490" y="407.5" width="70" height="35" as="geometry" />
        </mxCell>
        <mxCell id="NAq1_VTEs5BF6OpYtz93-16" value="" style="verticalLabelPosition=bottom;verticalAlign=top;html=1;shape=mxgraph.basic.rect;fillColor2=none;strokeWidth=1;size=20;indent=5;fillColor=#f5f5f5;fontColor=#333333;strokeColor=none;" parent="1" vertex="1">
          <mxGeometry x="750" y="330" width="800" height="170" as="geometry" />
        </mxCell>
        <mxCell id="NAq1_VTEs5BF6OpYtz93-17" value="生产" style="rounded=1;whiteSpace=wrap;html=1;strokeWidth=1;fillColor=#ffffff;" parent="1" vertex="1">
          <mxGeometry x="800" y="407.5" width="120" height="35" as="geometry" />
        </mxCell>
        <mxCell id="NAq1_VTEs5BF6OpYtz93-18" value="环境" style="text;html=1;strokeColor=none;fillColor=none;align=center;verticalAlign=middle;whiteSpace=wrap;rounded=0;fontStyle=0;fontSize=14;" parent="1" vertex="1">
          <mxGeometry x="1120" y="340" width="40" height="20" as="geometry" />
        </mxCell>
        <mxCell id="NAq1_VTEs5BF6OpYtz93-19" value="测试" style="rounded=1;whiteSpace=wrap;html=1;strokeWidth=1;fillColor=#ffffff;" parent="1" vertex="1">
          <mxGeometry x="1181" y="407.5" width="120" height="35" as="geometry" />
        </mxCell>
        <mxCell id="NAq1_VTEs5BF6OpYtz93-29" value="灰度" style="rounded=1;whiteSpace=wrap;html=1;strokeWidth=1;fillColor=#ffffff;" parent="1" vertex="1">
          <mxGeometry x="990" y="407.5" width="120" height="35" as="geometry" />
        </mxCell>
        <mxCell id="NAq1_VTEs5BF6OpYtz93-30" value="开发" style="rounded=1;whiteSpace=wrap;html=1;strokeWidth=1;fillColor=#ffffff;" parent="1" vertex="1">
          <mxGeometry x="1380" y="407.5" width="120" height="35" as="geometry" />
        </mxCell>
        <mxCell id="NAq1_VTEs5BF6OpYtz93-32" value="" style="verticalLabelPosition=bottom;verticalAlign=top;html=1;shape=mxgraph.basic.rect;fillColor2=none;strokeWidth=1;size=20;indent=5;fillColor=#f5f5f5;fontColor=#333333;strokeColor=none;" parent="1" vertex="1">
          <mxGeometry x="88" y="570" width="380" height="170" as="geometry" />
        </mxCell>
        <mxCell id="NAq1_VTEs5BF6OpYtz93-33" value="saas" style="rounded=1;whiteSpace=wrap;html=1;strokeWidth=1;fillColor=#ffffff;flipH=1;" parent="1" vertex="1">
          <mxGeometry x="130" y="647.5" width="70" height="35" as="geometry" />
        </mxCell>
        <mxCell id="NAq1_VTEs5BF6OpYtz93-34" value="项目" style="text;html=1;strokeColor=none;fillColor=none;align=center;verticalAlign=middle;whiteSpace=wrap;rounded=0;fontStyle=0;fontSize=14;" parent="1" vertex="1">
          <mxGeometry x="300" y="585" width="40" height="20" as="geometry" />
        </mxCell>
        <mxCell id="NAq1_VTEs5BF6OpYtz93-35" value="cdp" style="rounded=1;whiteSpace=wrap;html=1;strokeWidth=1;fillColor=#ffffff;flipH=1;" parent="1" vertex="1">
          <mxGeometry x="240" y="649.5999999999999" width="70" height="35" as="geometry" />
        </mxCell>
        <mxCell id="NAq1_VTEs5BF6OpYtz93-36" value="marketing" style="rounded=1;whiteSpace=wrap;html=1;strokeWidth=1;fillColor=#ffffff;flipH=1;" parent="1" vertex="1">
          <mxGeometry x="370" y="649.6" width="60" height="37.1" as="geometry" />
        </mxCell>
        <mxCell id="Ph2IGxBi6Td_Hl4KfLrK-1" value="growingio.com" style="text;html=1;strokeColor=none;fillColor=none;align=center;verticalAlign=middle;whiteSpace=wrap;rounded=0;" vertex="1" parent="1">
          <mxGeometry x="810" y="460" width="100" height="20" as="geometry" />
        </mxCell>
        <mxCell id="Ph2IGxBi6Td_Hl4KfLrK-8" value="growingio.cn" style="text;html=1;strokeColor=none;fillColor=none;align=center;verticalAlign=middle;whiteSpace=wrap;rounded=0;" vertex="1" parent="1">
          <mxGeometry x="1010" y="460" width="100" height="20" as="geometry" />
        </mxCell>
        <mxCell id="Ph2IGxBi6Td_Hl4KfLrK-9" value="growingio.com" style="text;html=1;strokeColor=none;fillColor=none;align=center;verticalAlign=middle;whiteSpace=wrap;rounded=0;" vertex="1" parent="1">
          <mxGeometry x="1191" y="460" width="100" height="20" as="geometry" />
        </mxCell>
        <mxCell id="Ph2IGxBi6Td_Hl4KfLrK-10" value="growingio.com" style="text;html=1;strokeColor=none;fillColor=none;align=center;verticalAlign=middle;whiteSpace=wrap;rounded=0;" vertex="1" parent="1">
          <mxGeometry x="1390" y="460" width="100" height="20" as="geometry" />
        </mxCell>
      </root>
    </mxGraphModel>
  </diagram>
</mxfile>
